<?xml version="1.0" encoding="UTF-8"?><svg xmlns="http://www.w3.org/2000/svg" xmlns:xlink="http://www.w3.org/1999/xlink" data-name="Capa 1" height="351.5" preserveAspectRatio="xMidYMid meet" version="1.0" viewBox="27.6 23.2 140.6 351.5" width="140.6" zoomAndPan="magnify"><g id="change1_1"><path d="M167.52,23.36c-5-.15-8.33,6.68-9.34,11.32-2.14,2.39-4.18,4.9-6.13,7.49a23.36,23.36,0,0,0,1-7.46.68.68,0,0,0-1.19-.35A12.17,12.17,0,0,0,149.2,41c-.29,2.12-1,4.43-1,6.56q-2.32,3.42-4.48,7c.34-3.14.06-6.19-1-8.24a.73.73,0,0,0-1.22-.18c-2,1.88-7.83,16.76-3.06,17.57-.29.53-.56,1.07-.85,1.6a1.27,1.27,0,0,1-.13.11.51.51,0,0,0-.2.5c-1.95,3.66-3.82,7.35-5.66,11.08.17-1.19.26-2.38.34-3.47.22-3.07.43-6.34-.49-9.32-.2-.63-1-.48-1.26,0a20.78,20.78,0,0,0-2,16.95.71.71,0,0,0,.91.47c-.07.13-.12.27-.19.38a.44.44,0,0,0,0,.48c-1.25,2.59-2.49,5.19-3.73,7.78-.58,1.22-1.1,2.46-1.72,3.65a16.31,16.31,0,0,1-1,1.68,10.15,10.15,0,0,1-.92.85A14.43,14.43,0,0,0,117,83.14a.54.54,0,0,0-.3-.15c-.16,0-.26.17-.33.31a12.55,12.55,0,0,0-1.23,7.5,13.14,13.14,0,0,0,3.24,6.89,6.1,6.1,0,0,1,1,1.24c1.35,2.64-1.5,6.44-2.64,8.67q-2.93,5.73-5.77,11.5c1.33-5.52,1.22-11.75-1.49-16.34a.78.78,0,0,0-1.22,0,11.21,11.21,0,0,0-1,1.41,1,1,0,0,0-.11.17c-3,5-3,13.42-.6,18.81.08.73.16,1.45.27,2.16a.63.63,0,0,0,.94.45q-4,8.29-7.79,16.7c1.39-5.83.81-12.9-2.4-17.63a.74.74,0,0,0-1.15,0c-4.64,4.53-4.7,14.34-1,19.92.23,1.17,1.84,2.53,1.86,2.07.23.12-4.73,12.85-7.26,19.35,1.3-4.8-1.67-13.45-3.09-16.32a.72.72,0,0,0-1.36.15,38.13,38.13,0,0,0-.2,15.46A42.57,42.57,0,0,0,87,174.18c-2.64,7.22-5.09,14.51-7.28,21.92a484.49,484.49,0,0,0-14.1,62.18c-1.77-14.3-5.91-43.81-6.06-44s-.92-6.09-1.38-8.88c5.28,2.39,12.18-13.53,12.85-16.87a.79.79,0,0,0-1.24-.76,31.78,31.78,0,0,0-2.71,2.61.83.83,0,0,0-.84-.11c-5,2-7.08,8.17-8.4,13.13-.51-3.07-1.7-10.29-1.84-10.45-.27-.32-.27-1.47-.35-1.9a17.72,17.72,0,0,0-.39-2,9.38,9.38,0,0,1-.31-3.51.78.78,0,0,1,.09-.33c.18-.26.58-.15.88,0a5.37,5.37,0,0,0,5.39-1.06,7,7,0,0,0,2-4.06,21.61,21.61,0,0,0,.11-4.62,14.09,14.09,0,0,0-6.11,4.14,14.27,14.27,0,0,0-2,3.11c-.14.3-.4,1.42-.78,1.43s-.48-1.49-.54-1.8q-1.58-8.06-3.22-16.1a12.57,12.57,0,0,0,.57-1.36c3.87-3.64,5.9-11.41,5.51-15.86a.85.85,0,0,0-1.34-.58c-3.58,3-4.88,8.12-5.74,13q-1-4.83-2-9.66l0,0c5.46-1.57,7.15-14.45,6.84-18.63a.74.74,0,0,0-1.17-.5c-3.77,2.94-6,8.66-6.76,14-.11-.51-.21-1-.32-1.53-1-5-1.79-10.13-2.69-15.18a1.13,1.13,0,0,0,.58-.69,2.44,2.44,0,0,0,.07-.46c3.27-1.29,4.06-12,4.38-14.08a.72.72,0,0,0-1.27-.56,25.7,25.7,0,0,0-3.86,9c-.14.59-.46,1.44-.74,2.34a99.28,99.28,0,0,0-2.75-10.83c-.23-.68-.46-1.35-.68-2a.46.46,0,0,0,.24-.3,9.7,9.7,0,0,0,.26-2.75c3.34-2.15,2.21-10.19,1.4-13.06-.19-.66-1.12-.56-1.38,0a24.48,24.48,0,0,0-2,11.68c-.25-3.3-2.49-7.25-3.46-10.44-.35-1.14-1.64-3.73-1.26-4.87s2.93-2.46,3.84-3.37c1.25-1.25,2.23-3,1.83-4.73a5.59,5.59,0,0,0-3.42,1.63A16.36,16.36,0,0,0,33,89.26c-.44-2.46-.56-4.61-1.2-7.06-.56-2.13-1.07-4.38-2.65-6a.63.63,0,0,0-.54-.26c-.22,0-.32.31-.38.54A11.16,11.16,0,0,0,28.37,82c.87,3.3,2.86,6.24,3.66,9.76.7,3.08,1.54,6.13,2.42,9.16.46,1.58.94,3.16,1.42,4.73.19.65.69,3.72,1.22,4,0,0-.06-.07-.13-.08a8.78,8.78,0,0,0-3.38-3.74c-.28-.43-.52-.8-.71-1a12.09,12.09,0,0,0-4.17-3.85.73.73,0,0,0-1,.92c1.59,5.13,5.74,9.59,10,12.72a.82.82,0,0,0,.85.13c1.24,4.61,2.16,9.25,3,13.92a27.67,27.67,0,0,0-4.48-7.35.81.81,0,0,0-1.38.15,1,1,0,0,0-.7,1c.18,2.18,1,5.39,2.57,7s4.14,1.74,5.11,3.91c1.25,2.81,0,6.72,1.37,9.65a13,13,0,0,0-5.48-6.35.81.81,0,0,0-1.12.82c.49,5.54,4.36,10.45,7.68,14.67a.85.85,0,0,0,.83.33c.77,3.67,1.52,7.34,2.28,11a24.59,24.59,0,0,0-8.44-7.13.88.88,0,0,0-1.22.67c-1,6.29,6.29,12.29,10.77,15.52a.88.88,0,0,0,.74.14q1,5.16,2,10.32l0-.06a.51.51,0,0,0-.33-.34,14.5,14.5,0,0,0-4.78-4.85.84.84,0,0,0-1.17.86A25.64,25.64,0,0,0,49.35,188c1.14,1.79,2.66,4.1,4.61,5.37.78,4.43,1.38,8.87,2.29,13.26a8.83,8.83,0,0,1,.27,2.7,21.85,21.85,0,0,0-3.62-7.25,25,25,0,0,0-5.75-5.48c-.41-.31-1.22-.14-1.24.47-.11,4.89,4.09,9.17,8,12.75a45.52,45.52,0,0,0,3.33,3.85c.2,1.35.42,2.69.61,4,2.38,17.06,4.4,34.16,6.21,51.29-.69,5.26-1.32,10.52-1.81,15.79-2.71,29.41-3.76,60.48,1.76,89.63a.45.45,0,0,0,.89-.1c-1.35-31.13-3.47-61.59-.11-92.72.09-.83.2-1.66.3-2.49.28,2.8.57,5.6.84,8.39,2.28,23.65,2.54,47.44,4.88,71,.09.89,1.32.69,1.33-.16.4-29.34-1.81-59-5.17-88.46,3-10.25,6.64-20.16,11.81-29.47a.77.77,0,0,0,.87-1c0-.11-.07-.23-.11-.35l.28-.47A16.24,16.24,0,0,0,81.94,236c.32,0,.64-.06,1-.11,6,.56,13.34-3.61,16.31-8.55.25-.42-.14-.91-.54-1-4.69-1-9.6,1.3-13.67,4.29a140.63,140.63,0,0,1,11.63-14,.75.75,0,0,0,.53.43A10.88,10.88,0,0,0,101,217c4.52.08,9.23-1.16,12.61-4.25.26-.23.32-.76-.09-.89a14,14,0,0,0-3.07-.59.61.61,0,0,0-.51-.44c-3.58-.32-7.35,1.06-10.48,2.92,2.92-3,5.94-5.91,9-8.79,6.62,1.41,12.11-5.26,15.36-10.05.23-.33.46-.77.25-1.12a1,1,0,0,0-.82-.37,11.9,11.9,0,0,0-9.51,3.22,17.52,17.52,0,0,0-2.93,4,6.28,6.28,0,0,1-2.34,2.67,38.34,38.34,0,0,0-4.12,3.4l-2,1.81c-.55.5-1.66,1.19-2,1.84a17,17,0,0,0,2-7.37c0-.55-.68-.69-1.06-.46a20.3,20.3,0,0,0-6.4,6.7c-.85,1.35-1.55,2.78-2.31,4.19s-.43,3.47-.45,5.09A1.47,1.47,0,0,1,92,219c-.2.5-1.06,1.12-1.42,1.54-.56.66-1.11,1.31-1.66,2s-1.08,1.33-1.61,2c-.39.49-1.47,1.43-1.59,2a17.41,17.41,0,0,0-.19-9,.59.59,0,0,0-.89-.26c-5.17,4.12-9.23,14.21-7,21A106.65,106.65,0,0,0,67.6,260.26a462.57,462.57,0,0,1,15.1-66.81q2.53-8.19,5.39-16.31a.43.43,0,0,0,.7-.37l-.18-1.06c1.57-4.4,3.18-8.78,4.88-13.15l.2,0c-.3.31-.22.95.29,1,7.4.42,15.11-7.28,18.6-13.16a.92.92,0,0,0-.69-1.27c-6.39-1-12.47,5.09-17,9.79q3.3-8.35,6.9-16.63a.52.52,0,0,0,.57.22l.57-.18.07,0a19.64,19.64,0,0,0,7.88-3.15,35.85,35.85,0,0,0,12.24-9.87.81.81,0,0,0-.3-1.23c-8.23-2.66-15.78,6.52-20.24,12.4q4.69-10.68,9.81-21.22a9.89,9.89,0,0,0,4.65-1.15,13.05,13.05,0,0,0,5.82-3.73,35.44,35.44,0,0,0,6.92-6.53.91.91,0,0,0-.56-1.46c-6.62-.7-11.62,5-15.32,9.81,1.06-1.39,1.7-3.45,2.49-5l2.53-5q1.3-2.56,2.64-5.12c.55-1,1.21-3.06,2.54-3.33a7.41,7.41,0,0,1,2.06.31,4.82,4.82,0,0,0,2.33-.53,32.78,32.78,0,0,0,4.83-2.28,11.07,11.07,0,0,0,3.82-3.66,4,4,0,0,0,.67-2.66,1.2,1.2,0,0,0-.48-.86,1.57,1.57,0,0,0-1.11,0,29.2,29.2,0,0,0-4.09,1.24,10.71,10.71,0,0,0-2.7,1.42,13.36,13.36,0,0,0-1.86,1.9l-2.7,3.16c1.23-2.85,2.48-5.55,4-8.28l2.31-4.18,1.2-2.16c.15-.25.81-1.83,1.05-1.86,5.81-.86,12-3.46,15.43-8.34a.87.87,0,0,0-.54-1.39c-4.5-.45-8.55,2.25-12,5.15l-.46.37q3-5.17,6-10.3c1.71-.13,3.54-1.37,4.8-2.23a29.56,29.56,0,0,0,7.08-6.25c.31-.42.14-1.25-.5-1.27a11.59,11.59,0,0,0-6.85,2.12c1.16-1.92,2.31-3.84,3.47-5.75.29-.28.58-.58.86-.9,4.18-.1,9.07-4.25,11.1-7.42a.62.62,0,0,0-.38-1,7.35,7.35,0,0,0-6.89,1.66q2.76-4.45,5.56-8.89a.25.25,0,0,0,.14.08c2,.34,3.84-2.55,4.82-4,1.41-2,3.08-4.45,3.1-7A.68.68,0,0,0,167.52,23.36Z" fill="#5d4809"/></g></svg>