<?xml version="1.0" encoding="UTF-8" standalone="no"?>
<!-- Created with Inkscape (http://www.inkscape.org/) -->

<svg
   width="125.62435mm"
   height="25.602766mm"
   viewBox="0 0 125.62435 25.602766"
   version="1.1"
   id="svg5"
   inkscape:version="1.1.2 (0a00cf5339, 2022-02-04)"
   sodipodi:docname="logo.svg"
   xmlns:inkscape="http://www.inkscape.org/namespaces/inkscape"
   xmlns:sodipodi="http://sodipodi.sourceforge.net/DTD/sodipodi-0.dtd"
   xmlns="http://www.w3.org/2000/svg"
   xmlns:svg="http://www.w3.org/2000/svg">
  <sodipodi:namedview
     id="namedview7"
     pagecolor="#ffffff"
     bordercolor="#666666"
     borderopacity="1.0"
     inkscape:pageshadow="2"
     inkscape:pageopacity="0.0"
     inkscape:pagecheckerboard="0"
     inkscape:document-units="mm"
     showgrid="false"
     inkscape:zoom="1.2899551"
     inkscape:cx="304.27416"
     inkscape:cy="-6.2017662"
     inkscape:window-width="1904"
     inkscape:window-height="1027"
     inkscape:window-x="26"
     inkscape:window-y="23"
     inkscape:window-maximized="0"
     inkscape:current-layer="layer1" />
  <defs
     id="defs2" />
  <g
     inkscape:label="Layer 1"
     inkscape:groupmode="layer"
     id="layer1"
     transform="translate(-39.247063,-87.586914)">
    <path
       style="fill:#4e6146;fill-opacity:1;stroke-width:1"
       d="m 39.284984,112.76862 c -0.202154,-0.52681 0.425317,-1.84563 1.373245,-2.88628 1.131633,-1.24233 4.497277,-4.07158 5.982926,-5.0294 0.741252,-0.4779 1.704918,-1.25203 2.141481,-1.7203 l 0.79375,-0.8514 -1.341808,0.6722 c -1.59983,0.80147 -4.180763,1.50494 -5.521431,1.50494 -0.6843,0 -1.164039,-0.19802 -1.64502,-0.679 -0.542825,-0.54282 -0.646305,-0.84245 -0.515989,-1.49403 0.239286,-1.19643 1.793053,-3.087051 4.412505,-5.369122 3.242295,-2.824693 5.666069,-4.590662 7.96171,-5.800925 2.098095,-1.106116 2.870036,-1.131133 2.864554,-0.09283 -0.0076,1.431878 -3.411802,5.883519 -6.14577,8.036668 -2.851271,2.245529 -2.798505,2.102849 0.364734,-0.986288 3.114089,-3.041137 4.586942,-4.907442 4.994589,-6.328825 0.291867,-1.01768 -0.02456,-1.010066 -2.017392,0.04855 -2.414177,1.282436 -5.586906,3.671968 -8.359452,6.2959 -2.798888,2.648862 -3.61698,3.931852 -3.154441,4.947012 0.254411,0.55837 0.461217,0.62914 1.838409,0.62914 1.706384,0 3.965512,-0.67775 5.846785,-1.75408 0.666471,-0.38131 1.885019,-1.39979 2.707883,-2.263293 0.888523,-0.932408 1.567895,-1.453872 1.67286,-1.284035 0.09721,0.157287 -0.580557,1.087028 -1.506145,2.066088 -0.925589,0.97906 -1.841621,1.98828 -2.035627,2.2427 -0.332311,0.4358 -0.290872,0.44076 0.715573,0.0857 0.587571,-0.2073 1.59404,-0.45576 2.236598,-0.55211 1.005932,-0.15085 1.316952,-0.36555 2.238058,-1.54493 2.377382,-3.04398 7.284658,-7.868561 7.640994,-7.512226 0.07377,0.07377 -1.404149,1.666421 -3.284257,3.539234 -1.880106,1.872814 -3.850226,4.084002 -4.378043,4.913762 -0.527818,0.82975 -0.959669,1.57389 -0.959669,1.65364 0,0.5461 2.446537,-0.45889 4.529537,-1.86065 1.178912,-0.79335 3.02496,-1.37596 3.345182,-1.05574 0.347237,0.34724 -0.94117,1.2546 -2.429372,1.71089 -0.998276,0.30607 -1.641356,0.65596 -1.694435,0.9219 -0.12976,0.65013 1.068452,0.54278 2.599088,-0.23285 0.717928,-0.36381 1.453091,-0.66146 1.633693,-0.66146 0.180605,0 0.77769,-0.43875 1.326856,-0.975 0.549167,-0.53625 1.082662,-0.89082 1.18554,-0.78794 0.102881,0.10288 -0.460481,0.80331 -1.251913,1.5565 -1.066318,1.01481 -1.325785,1.39389 -1.001913,1.4638 0.600852,0.12972 2.169011,-0.55786 4.060862,-1.78052 1.599498,-1.03372 3.571874,-1.64599 3.571874,-1.10879 0,0.3199 -1.041331,1.10695 -1.447934,1.09437 -0.149522,-0.005 -0.03373,-0.19554 0.257309,-0.42424 0.513856,-0.4038 0.510027,-0.41023 -0.132291,-0.22248 -1.132102,0.33093 -2.774257,1.57181 -2.859471,2.16073 -0.07406,0.5118 -0.0029,0.54257 0.79375,0.34329 1.705128,-0.42655 3.969787,-1.53088 4.81059,-2.34582 0.46871,-0.45429 1.021395,-0.82599 1.228193,-0.82599 0.206799,0 -0.330922,0.71438 -1.194937,1.58751 -1.207246,1.21997 -1.450346,1.5869 -1.050052,1.58491 0.286488,-10e-4 1.145963,-0.2936 1.909948,-0.64929 0.763984,-0.35568 1.389062,-0.57037 1.389062,-0.47708 0,0.0933 0.355947,-0.17139 0.79099,-0.58819 0.435044,-0.4168 0.870575,-0.67824 0.967844,-0.58097 0.09727,0.0973 0.339513,0.0419 0.538321,-0.12313 0.66938,-0.55554 0.692581,0.0182 0.0361,0.89269 -0.358024,0.4769 -0.746183,1.0278 -0.862574,1.22422 -0.341921,0.57703 0.60183,-0.0178 2.046545,-1.28995 0.697544,-0.61422 1.337527,-1.04749 1.422183,-0.96284 0.08466,0.0847 -0.0457,0.65281 -0.289669,1.26256 -0.291978,0.72972 -0.35429,1.19793 -0.182316,1.3699 0.268597,0.2686 1.00194,-0.045 3.548917,-1.5175 1.527452,-0.88309 3.625328,-1.56208 3.625328,-1.17336 0,0.14827 -0.297656,0.65983 -0.661458,1.1368 -0.745956,0.978 -0.841383,1.47873 -0.281808,1.47873 0.868167,0 1.94968,-0.63775 3.251825,-1.91752 1.415055,-1.39075 2.100024,-1.623422 1.123137,-0.38151 l -0.544462,0.69217 0.739196,-0.38557 c 0.856768,-0.44689 1.82659,-0.50532 2.062112,-0.12424 0.09431,0.1526 -0.153604,0.26458 -0.585732,0.26458 -0.753814,0 -3.336581,1.50274 -4.008691,2.3324 -0.255691,0.31562 -0.396529,0.35144 -0.482495,0.12273 -0.0828,-0.22031 -0.482668,-0.27348 -1.257667,-0.16726 -1.281592,0.17566 -1.654466,-0.12706 -1.200751,-0.97484 0.269224,-0.50304 0.206325,-0.49173 -0.737005,0.13253 -1.265457,0.83744 -2.562748,1.23956 -2.902595,0.89971 -0.154636,-0.15463 -0.513117,-0.14757 -0.950516,0.0187 -0.803627,0.30554 -1.500589,0.12408 -1.500589,-0.3907 0,-0.19324 0.118395,-0.66275 0.263101,-1.04336 0.237297,-0.62413 0.118131,-0.57392 -1.214876,0.51194 -0.81289,0.66218 -1.579105,1.20396 -1.702697,1.20396 -0.484183,0 -0.469641,-0.47284 0.04032,-1.31141 l 0.533429,-0.87715 -1.274744,1.0903 c -0.757846,0.6482 -1.317659,0.96318 -1.380577,0.77678 -0.05821,-0.17243 0.03245,-0.35962 0.20147,-0.41595 0.169015,-0.0563 0.442325,-0.35995 0.607353,-0.67469 0.282872,-0.53949 0.271338,-0.54868 -0.201469,-0.16039 -0.555363,0.45607 -1.696403,0.99011 -2.830489,1.32474 -0.540411,0.15946 -0.779108,0.1207 -0.880271,-0.14292 -0.07634,-0.19894 -0.0064,-0.60911 0.155432,-0.91149 0.272841,-0.50981 0.202763,-0.49871 -0.963853,0.1526 -0.691947,0.38631 -1.632707,0.78688 -2.090579,0.89014 -0.932969,0.21042 -1.696969,-0.098 -1.696969,-0.68513 0,-0.32323 -0.16796,-0.30497 -0.992187,0.1079 -1.315694,0.65905 -2.377909,0.89857 -2.574467,0.58053 -0.08773,-0.14194 0.03621,-0.55677 0.275412,-0.92185 l 0.434917,-0.66376 -1.5484,0.78523 c -1.844237,0.93526 -3.251283,1.04604 -3.45372,0.27192 -0.134315,-0.51362 -0.148129,-0.51383 -1.122302,-0.0168 -0.542472,0.27674 -1.333333,0.54052 -1.75747,0.58616 -0.700989,0.0754 -0.766288,0.0143 -0.717639,-0.67169 0.05179,-0.73029 0.02185,-0.74929 -0.926041,-0.58796 -0.538759,0.0917 -1.812041,0.59213 -2.829518,1.11209 -1.375592,0.70295 -2.324416,1.46432 -3.700281,2.96921 -3.513431,3.84291 -6.054079,6.38946 -6.374636,6.38946 -0.1769,0 -0.394337,-0.18945 -0.483194,-0.42101 z m 3.661609,-3.31239 c 1.26164,-1.32577 2.230573,-2.47381 2.153186,-2.55119 -0.200994,-0.201 -2.883405,2.14058 -3.794723,3.31256 -1.01536,1.30577 -1.203256,1.64911 -0.902481,1.64911 0.137571,0 1.282379,-1.08472 2.544018,-2.41048 z m 3.091667,-3.34421 c 0.329107,-0.41964 0.319749,-0.429 -0.09989,-0.0999 -0.254662,0.19972 -0.463021,0.40808 -0.463021,0.46303 0,0.21776 0.217272,0.0776 0.562916,-0.36313 z m 37.022085,-3.7804 c 0.445526,-0.31724 0.749877,-0.63697 0.676333,-0.71052 -0.18256,-0.18256 -2.425636,0.92235 -2.808158,1.38326 -0.259278,0.31241 -0.178578,0.33436 0.506691,0.13783 0.448296,-0.12857 1.179607,-0.49332 1.625134,-0.81057 z m -22.112917,-1.34975 c 0.142201,-0.13312 -0.12569,-0.10809 -0.595312,0.0556 -0.46962,0.16371 -0.853856,0.35356 -0.853856,0.42189 0,0.18277 1.147885,-0.19547 1.449168,-0.47751 z m 41.866222,12.04329 c -0.36669,-0.36669 -0.17721,-1.10953 0.76173,-2.98636 1.12808,-2.25491 3.77665,-5.06951 5.92913,-6.30083 1.09196,-0.62465 2.33018,-1.84395 4.96044,-4.884661 1.92788,-2.228722 4.04123,-4.572049 4.69635,-5.207393 1.05204,-1.020283 1.44849,-1.622954 1.06762,-1.622954 -0.0679,0 -2.10767,0.595313 -4.53276,1.322917 -2.42509,0.727604 -4.58209,1.322916 -4.79334,1.322916 -0.21124,0 -0.33695,-0.141386 -0.27935,-0.314192 0.1111,-0.333302 0.15366,-0.3481 3.64354,-1.266945 1.23692,-0.325668 3.21867,-0.877047 4.40388,-1.225285 1.18521,-0.348239 2.28654,-0.633161 2.4474,-0.633161 0.72673,0 0.12247,0.983093 -1.99453,3.245004 -3.84972,4.113241 -7.0293,7.867604 -6.66131,7.865494 1.25451,-0.007 3.8754,-0.63814 4.3181,-1.03955 1.04016,-0.94317 2.51354,-1.418277 2.51354,-0.81053 0,0.14552 -0.20135,0.26458 -0.44744,0.26458 -0.3892,0 -0.38059,0.049 0.0661,0.37623 0.50675,0.37122 0.50621,0.3862 -0.0405,1.12448 -1.02035,1.37802 -3.48578,2.4155 -3.95107,1.66266 -0.0939,-0.15192 0.0253,-0.57538 0.26488,-0.94102 l 0.4356,-0.6648 -1.0081,0.16419 c -1.55602,0.25342 -3.34717,0.94223 -3.78623,1.45604 -1.45334,1.70081 -7.08555,8.3645 -7.41846,8.77708 -0.22385,0.27742 -0.49174,0.41966 -0.59531,0.31609 z m 3.88809,-5.09341 c 1.0322,-1.21835 2.11485,-2.52686 2.40589,-2.90781 l 0.52917,-0.69263 -0.82521,0.58602 c -1.2691,0.90124 -3.75064,3.68891 -4.37731,4.91729 -0.49001,0.96049 -0.50098,1.05105 -0.0856,0.70696 0.262,-0.21707 1.3209,-1.39149 2.3531,-2.60983 z m 10.65789,-4.86243 c 0.48202,-0.32743 0.82109,-0.74272 0.7535,-0.92287 -0.0676,-0.18016 0.007,-0.29922 0.16522,-0.26459 0.15847,0.0346 0.33511,-0.0631 0.39253,-0.21713 0.0619,-0.16605 -0.22867,-0.25704 -0.71359,-0.22347 -0.87428,0.0605 -1.44012,0.37129 -0.67606,0.37129 0.25228,0 0.37956,0.12464 0.28444,0.27854 -0.0947,0.15321 -0.31007,0.22883 -0.47864,0.16805 -0.43982,-0.15858 -1.17447,0.27348 -1.50035,0.88239 -0.23986,0.44817 -0.1957,0.5231 0.30829,0.5231 0.32354,0 0.98263,-0.26789 1.46466,-0.59531 z m 11.45946,5.28439 c 0,-0.33142 0.19822,-0.89697 0.44049,-1.25677 0.36564,-0.54303 3.35667,-4.01043 4.507,-5.22481 1.25925,-1.32936 2.19626,-2.727048 2.19626,-3.276031 0,-0.935168 1.18102,-3.166974 2.15608,-4.074404 l 0.83699,-0.778941 -0.79787,1.190625 c -1.08928,1.625489 -1.66663,2.792122 -1.66295,3.360298 0.002,0.330138 0.47009,-0.01423 1.52593,-1.122938 2.25656,-2.369549 4.66748,-5.3934 5.3173,-6.669131 0.31503,-0.618464 0.68942,-1.124479 0.83198,-1.124479 0.52722,0 0.23179,0.892493 -0.72844,2.200583 l -0.98764,1.345438 1.58296,-1.290967 c 2.02011,-1.647488 5.32066,-3.807689 6.12691,-4.010044 0.34226,-0.0859 0.79934,-0.0092 1.01573,0.170341 0.74812,0.62089 0.4637,2.208502 -0.86168,4.8098 -1.02953,2.020632 -1.70719,2.918971 -3.77032,4.998118 -2.55417,2.574012 -4.93067,4.216192 -6.84906,4.732762 -1.18497,0.31908 -2.07905,0.0779 -2.95365,-0.79668 -0.30898,-0.30898 -0.59788,-0.52209 -0.64201,-0.47359 -0.0441,0.0485 -1.10305,1.3221 -2.35317,2.8302 -2.89509,3.49252 -4.34433,5.06321 -4.67171,5.06321 -0.14252,0 -0.25913,-0.27117 -0.25913,-0.60259 z m 4.03098,-4.22606 c 1.51192,-1.78263 2.84828,-3.41974 2.96968,-3.63802 0.31551,-0.567311 -0.0303,-0.19842 -2.1083,2.24896 -0.98846,1.16416 -1.9329,2.23573 -2.09877,2.38125 -0.45947,0.40311 -1.81767,2.24896 -1.65482,2.24896 0.0788,0 1.38028,-1.45852 2.89221,-3.24115 z m 7.60927,-2.71148 c 3.53375,-1.24678 8.80439,-6.824087 10.22085,-10.815536 0.41736,-1.17609 0.44996,-1.736389 0.13038,-2.240644 -0.18524,-0.29227 -0.38499,-0.274013 -1.12043,0.102408 -1.78849,0.915395 -5.43962,3.571831 -7.42665,5.40337 -1.11854,1.031019 -2.8342,2.899713 -3.81257,4.152654 -1.89951,2.432598 -1.95831,2.766078 -0.61003,3.459498 0.82978,0.42675 1.26285,0.41653 2.61845,-0.0617 z m -15.19565,2.5397 c -0.099,-0.16018 -0.10903,-0.40607 -0.0223,-0.54642 0.0867,-0.14035 -0.2596,-0.0808 -0.76964,0.13229 -0.51004,0.21311 -1.24234,0.38747 -1.62734,0.38747 -0.61934,0 -0.68721,-0.087 -0.58913,-0.75528 l 0.11085,-0.75528 -1.19095,0.75528 c -1.11522,0.70725 -2.67486,1.02223 -2.67486,0.5402 0,-0.37304 1.41286,-1.55763 2.51354,-2.10743 1.25167,-0.62523 2.94869,-1.1229 3.14829,-0.92329 0.0777,0.0777 -0.23196,0.661 -0.68815,1.29622 -0.45618,0.63522 -0.7484,1.23597 -0.64938,1.33499 0.26384,0.26384 3.09178,-0.68523 3.24699,-1.08971 0.20993,-0.54706 2.3814,-1.99987 2.98915,-1.99987 0.30363,0 0.55206,0.11907 0.55206,0.26459 0,0.14552 -0.20135,0.26458 -0.44744,0.26458 -0.40341,0 -0.40011,0.0346 0.0335,0.35168 0.3822,0.27946 0.42299,0.45996 0.19868,0.8791 -0.65446,1.22287 -3.69907,2.67442 -4.13388,1.97088 z m 1.78686,-0.58815 c 0.66088,-0.33954 2.03312,-1.57025 2.03312,-1.82344 0,-0.0931 -0.38695,-0.11622 -0.85989,-0.0514 -0.87074,0.11935 -1.89275,0.86288 -2.34871,1.70872 -0.1898,0.3521 -0.14812,0.46302 0.17398,0.46302 0.23297,0 0.68364,-0.13361 1.0015,-0.29691 z m -5.90438,-0.65424 c 0.36381,-0.19522 0.95912,-0.59883 1.32292,-0.89691 l 0.66146,-0.54195 -0.71859,0.25899 c -0.39523,0.14244 -1.19082,0.4999 -1.76799,0.79435 -1.24118,0.6332 -1.74429,1.23016 -0.7877,0.93462 0.34565,-0.10679 0.9261,-0.35388 1.2899,-0.5491 z m 28.31042,1.08999 c 0,-0.30967 -0.14025,-0.337 -0.67868,-0.13229 -0.37328,0.14192 -0.98247,0.25803 -1.35376,0.25803 -0.57742,0 -0.65679,-0.0957 -0.54864,-0.66146 0.0695,-0.3638 0.0956,-0.66145 0.0579,-0.66145 -0.0377,0 -0.58676,0.29622 -1.22008,0.65827 -1.1391,0.65119 -2.60669,0.88967 -2.60669,0.42358 0,-0.34707 1.49063,-1.55085 2.65766,-2.14622 1.14765,-0.58549 3.16317,-1.09267 3.16317,-0.79598 0,0.11005 -0.35718,0.64954 -0.79375,1.19889 -0.43656,0.54934 -0.79375,1.10149 -0.79375,1.227 0,0.12551 0.23038,0.22821 0.51195,0.22821 0.94936,0 1.99559,-0.55405 3.12053,-1.65252 0.61541,-0.60093 1.2033,-1.00824 1.30641,-0.90512 0.10312,0.10311 -0.34087,0.73506 -0.98664,1.40433 -1.34151,1.39032 -0.70469,1.17249 1.21863,-0.41686 1.22005,-1.00818 1.97287,-1.34112 1.97287,-0.8725 0,0.11174 -0.30338,0.64963 -0.67418,1.1953 -0.37079,0.54568 -0.60681,1.10116 -0.52446,1.23439 0.24308,0.39331 2.50232,-0.51444 2.83241,-1.13804 1.06795,-2.01758 8.17225,-9.352332 8.72662,-9.009708 0.15275,0.0944 -0.35027,0.712263 -1.13553,1.394788 -2.05251,1.783982 -2.85581,2.595968 -4.615,4.664894 -2.61453,3.074886 -3.21336,4.101046 -2.39321,4.101046 0.66066,0 2.24664,-0.77981 3.13131,-1.53962 1.4323,-1.23015 2.14216,-1.63584 2.84685,-1.62697 0.64509,0.008 0.65058,0.0222 0.15514,0.39687 -0.28247,0.21366 -0.37177,0.38847 -0.19843,0.38847 0.64297,0 0.28503,1.02996 -0.64029,1.84239 -1.57349,1.38155 -3.27789,1.79578 -3.27789,0.79664 0,-0.49715 -0.0527,-0.50942 -0.72761,-0.16942 -0.40018,0.2016 -1.04872,0.44347 -1.4412,0.53749 -0.5171,0.12387 -0.78143,0.0498 -0.95988,-0.26911 -0.22954,-0.41017 -0.32154,-0.40995 -1.35436,0.003 -0.60944,0.24385 -1.2193,0.37463 -1.35523,0.29063 -0.3284,-0.20297 -0.3164,-1.10582 0.0174,-1.31214 0.14552,-0.0899 0.26459,-0.27186 0.26459,-0.40426 0,-0.13241 -0.67459,0.23181 -1.49907,0.80936 -1.5886,1.11281 -2.2051,1.29728 -2.2051,0.65978 z m 11.86655,-0.93425 c 1.38225,-1.00129 1.47619,-1.6154 0.2032,-1.3283 -1.14962,0.25928 -1.34554,0.38897 -2.02128,1.33796 l -0.5595,0.78575 h 0.63977 c 0.35188,0 1.13389,-0.35794 1.73781,-0.79541 z m -15.12137,-0.42583 c 1.34869,-0.77357 1.74302,-1.27533 0.69025,-0.87832 -0.92674,0.34949 -2.99168,1.54473 -2.99168,1.73167 0,0.23621 1.13653,-0.1852 2.30143,-0.85335 z m -55.74726,1.27074 c 0,-0.37304 1.412861,-1.55763 2.513541,-2.10743 1.251665,-0.62523 2.948683,-1.1229 3.148293,-0.92329 0.0777,0.0777 -0.231968,0.661 -0.688152,1.29622 -0.456181,0.63522 -0.747665,1.23671 -0.647742,1.33663 0.09992,0.0999 0.798139,-0.0155 1.55159,-0.25639 0.753449,-0.24095 1.423837,-0.38415 1.48975,-0.31824 0.216532,0.21653 -2.190747,1.17583 -2.96554,1.18177 -0.683728,0.005 -0.746821,-0.0679 -0.646782,-0.74947 l 0.110853,-0.75528 -1.190956,0.75528 c -1.115219,0.70725 -2.674855,1.02223 -2.674855,0.5402 z m 2.645833,-1.00065 c 0.363802,-0.19522 0.959114,-0.59883 1.322916,-0.89691 l 0.661459,-0.54195 -0.718593,0.25899 c -0.395224,0.14244 -1.190818,0.4999 -1.767985,0.79435 -1.241176,0.6332 -1.744295,1.23016 -0.787702,0.93462 0.345647,-0.10679 0.926103,-0.35388 1.289905,-0.5491 z m 7.408327,0.60377 c 0,-0.77733 1.1155,-1.8489 2.64584,-2.54163 1.41701,-0.64143 2.11666,-0.69401 2.11666,-0.15908 0,0.45158 -1.55843,1.30502 -2.91041,1.59383 -0.86361,0.18448 -1.30924,0.51941 -1.31887,0.99124 -0.008,0.40251 1.29556,0.17962 2.77404,-0.47423 0.83656,-0.36997 1.5778,-0.61589 1.6472,-0.54649 0.26835,0.26835 -3.13535,1.74832 -4.02087,1.74832 -0.7993,0 -0.93359,-0.088 -0.93359,-0.61196 z m 3.43959,-2.16616 c 0.3638,-0.20797 0.54239,-0.37813 0.39687,-0.37813 -0.14552,0 -0.56224,0.17016 -0.92604,0.37813 -0.3638,0.20796 -0.5424,0.37812 -0.39687,0.37812 0.14552,0 0.56224,-0.17016 0.92604,-0.37812 z m 17.99166,-2.092577 c 0,-0.586539 0.7473,-0.841853 1.35438,-0.462724 0.5923,0.369896 0.84757,0.393795 0.6413,0.06004 -0.0837,-0.135466 -0.0395,-0.316002 0.0984,-0.401191 0.46647,-0.288293 0.61746,0.430606 0.18192,0.866147 -0.36372,0.363721 -0.51918,0.378298 -0.97808,0.09171 -0.42109,-0.262973 -0.63148,-0.269495 -0.92176,-0.02858 -0.29935,0.248435 -0.37615,0.222832 -0.37615,-0.125406 z M 66.247802,98.63323 c 0.0914,-0.147895 0.277024,-0.2004 0.412491,-0.116677 0.366988,0.226811 0.298558,0.385576 -0.16619,0.385576 -0.22687,0 -0.337704,-0.121005 -0.246301,-0.268899 z m 8.067125,-0.0113 c 0,-0.154109 0.119062,-0.206614 0.264583,-0.116677 0.145521,0.08994 0.264583,0.216026 0.264583,0.280198 0,0.06417 -0.119062,0.116677 -0.264583,0.116677 -0.145521,0 -0.264583,-0.126089 -0.264583,-0.280198 z"
       id="path2226" />
  </g>
</svg>
